G04 #@! TF.FileFunction,Legend,Top*
%FSLAX46Y46*%
G04 Gerber Fmt 4.6, Leading zero omitted, Abs format (unit mm)*
G04 Created by KiCad (PCBNEW 0.201507042246+5884~23~ubuntu15.04.1-product) date Mon 06 Jul 2015 21:28:29 BST*
%MOMM*%
G01*
G04 APERTURE LIST*
%ADD10C,0.150000*%
%ADD11C,0.200000*%
%ADD12C,0.304800*%
%ADD13C,0.381000*%
%ADD14C,0.152400*%
%ADD15C,0.254000*%
%ADD16C,0.203200*%
%ADD17C,0.285750*%
%ADD18C,0.088900*%
G04 APERTURE END LIST*
D10*
D11*
X169926000Y-134112000D02*
X170688000Y-133350000D01*
X163322000Y-134239000D02*
X164084000Y-133477000D01*
D10*
X211328000Y-137541000D02*
G75*
G03X211328000Y-137541000I-10922000J0D01*
G01*
D12*
X154178000Y-149352000D02*
X154178000Y-151892000D01*
X154178000Y-151892000D02*
X163068000Y-151892000D01*
X163068000Y-151892000D02*
X163068000Y-149352000D01*
X163068000Y-149352000D02*
X154178000Y-149352000D01*
X154178000Y-149987000D02*
X154813000Y-149352000D01*
X154178000Y-150622000D02*
X152908000Y-150622000D01*
X163068000Y-150622000D02*
X164338000Y-150622000D01*
X176657000Y-134493000D02*
X176657000Y-137033000D01*
X176657000Y-137033000D02*
X185547000Y-137033000D01*
X185547000Y-137033000D02*
X185547000Y-134493000D01*
X185547000Y-134493000D02*
X176657000Y-134493000D01*
X176657000Y-135128000D02*
X177292000Y-134493000D01*
X176657000Y-135763000D02*
X175387000Y-135763000D01*
X185547000Y-135763000D02*
X186817000Y-135763000D01*
X166624000Y-154254200D02*
X166624000Y-149225000D01*
X166624000Y-149225000D02*
X169164000Y-149225000D01*
X169164000Y-149225000D02*
X169164000Y-154305000D01*
X169164000Y-154305000D02*
X166624000Y-154305000D01*
X167259000Y-154305000D02*
X166624000Y-153670000D01*
X183642000Y-154254200D02*
X183642000Y-149225000D01*
X183642000Y-149225000D02*
X186182000Y-149225000D01*
X186182000Y-149225000D02*
X186182000Y-154305000D01*
X186182000Y-154305000D02*
X183642000Y-154305000D01*
X184277000Y-154305000D02*
X183642000Y-153670000D01*
X153238200Y-154432000D02*
X148209000Y-154432000D01*
X148209000Y-154432000D02*
X148209000Y-151892000D01*
X148209000Y-151892000D02*
X153289000Y-151892000D01*
X153289000Y-151892000D02*
X153289000Y-154432000D01*
X153289000Y-153797000D02*
X152654000Y-154432000D01*
D10*
X181483000Y-153924000D02*
X170307000Y-153924000D01*
X170307000Y-153924000D02*
X170307000Y-149352000D01*
X170307000Y-149352000D02*
X181483000Y-149352000D01*
X181483000Y-149352000D02*
X181483000Y-153924000D01*
X153035000Y-138176000D02*
X188595000Y-138176000D01*
X188595000Y-138176000D02*
X188595000Y-148336000D01*
X188595000Y-148336000D02*
X153035000Y-148336000D01*
X153035000Y-148336000D02*
X153035000Y-138176000D01*
D13*
X153289000Y-141986000D02*
X154559000Y-141986000D01*
X154559000Y-141986000D02*
X154559000Y-144526000D01*
X154559000Y-144526000D02*
X153289000Y-144526000D01*
D14*
X187325000Y-131572000D02*
G75*
G03X186182000Y-132715000I0J-1143000D01*
G01*
X187325000Y-133858000D02*
G75*
G03X188468000Y-132715000I0J1143000D01*
G01*
X187325000Y-131064000D02*
G75*
G03X185674000Y-132715000I0J-1651000D01*
G01*
X187325000Y-134366000D02*
G75*
G03X188976000Y-132715000I0J1651000D01*
G01*
D13*
X151257000Y-132969000D02*
G75*
G03X151257000Y-132969000I-2286000J0D01*
G01*
X201168000Y-152019000D02*
G75*
G03X201168000Y-152019000I-2286000J0D01*
G01*
D10*
X199032762Y-140660048D02*
X199080381Y-140517191D01*
X199080381Y-140279095D01*
X199032762Y-140183857D01*
X198985143Y-140136238D01*
X198889905Y-140088619D01*
X198794667Y-140088619D01*
X198699429Y-140136238D01*
X198651810Y-140183857D01*
X198604190Y-140279095D01*
X198556571Y-140469572D01*
X198508952Y-140564810D01*
X198461333Y-140612429D01*
X198366095Y-140660048D01*
X198270857Y-140660048D01*
X198175619Y-140612429D01*
X198128000Y-140564810D01*
X198080381Y-140469572D01*
X198080381Y-140231476D01*
X198128000Y-140088619D01*
X199080381Y-139660048D02*
X198080381Y-139660048D01*
X198080381Y-139279095D01*
X198128000Y-139183857D01*
X198175619Y-139136238D01*
X198270857Y-139088619D01*
X198413714Y-139088619D01*
X198508952Y-139136238D01*
X198556571Y-139183857D01*
X198604190Y-139279095D01*
X198604190Y-139660048D01*
X198556571Y-138660048D02*
X198556571Y-138326714D01*
X199080381Y-138183857D02*
X199080381Y-138660048D01*
X198080381Y-138660048D01*
X198080381Y-138183857D01*
X198794667Y-137802905D02*
X198794667Y-137326714D01*
X199080381Y-137898143D02*
X198080381Y-137564810D01*
X199080381Y-137231476D01*
X199080381Y-136898143D02*
X198080381Y-136898143D01*
X199080381Y-136326714D02*
X198508952Y-136755286D01*
X198080381Y-136326714D02*
X198651810Y-136898143D01*
X198556571Y-135898143D02*
X198556571Y-135564809D01*
X199080381Y-135421952D02*
X199080381Y-135898143D01*
X198080381Y-135898143D01*
X198080381Y-135421952D01*
X199080381Y-134421952D02*
X198604190Y-134755286D01*
X199080381Y-134993381D02*
X198080381Y-134993381D01*
X198080381Y-134612428D01*
X198128000Y-134517190D01*
X198175619Y-134469571D01*
X198270857Y-134421952D01*
X198413714Y-134421952D01*
X198508952Y-134469571D01*
X198556571Y-134517190D01*
X198604190Y-134612428D01*
X198604190Y-134993381D01*
X151566571Y-144359190D02*
X151566571Y-144692524D01*
X152090381Y-144692524D02*
X151090381Y-144692524D01*
X151090381Y-144216333D01*
X151090381Y-143978238D02*
X151090381Y-143406809D01*
X152090381Y-143692524D02*
X151090381Y-143692524D01*
X152090381Y-143073476D02*
X151090381Y-143073476D01*
X151090381Y-142835381D01*
X151138000Y-142692523D01*
X151233238Y-142597285D01*
X151328476Y-142549666D01*
X151518952Y-142502047D01*
X151661810Y-142502047D01*
X151852286Y-142549666D01*
X151947524Y-142597285D01*
X152042762Y-142692523D01*
X152090381Y-142835381D01*
X152090381Y-143073476D01*
X152090381Y-142073476D02*
X151090381Y-142073476D01*
D15*
X158018238Y-151311429D02*
X157437667Y-151311429D01*
X157727953Y-151311429D02*
X157727953Y-149787429D01*
X157631191Y-150005143D01*
X157534429Y-150150286D01*
X157437667Y-150222857D01*
X158453667Y-151311429D02*
X158453667Y-149787429D01*
X158550429Y-150730857D02*
X158840714Y-151311429D01*
X158840714Y-150295429D02*
X158453667Y-150876000D01*
X159808333Y-151311429D02*
X159227762Y-151311429D01*
X159518048Y-151311429D02*
X159518048Y-149787429D01*
X159421286Y-150005143D01*
X159324524Y-150150286D01*
X159227762Y-150222857D01*
D12*
D15*
X177763715Y-135073571D02*
X177812096Y-135001000D01*
X177908858Y-134928429D01*
X178150762Y-134928429D01*
X178247524Y-135001000D01*
X178295905Y-135073571D01*
X178344286Y-135218714D01*
X178344286Y-135363857D01*
X178295905Y-135581571D01*
X177715334Y-136452429D01*
X178344286Y-136452429D01*
X178731334Y-135073571D02*
X178779715Y-135001000D01*
X178876477Y-134928429D01*
X179118381Y-134928429D01*
X179215143Y-135001000D01*
X179263524Y-135073571D01*
X179311905Y-135218714D01*
X179311905Y-135363857D01*
X179263524Y-135581571D01*
X178682953Y-136452429D01*
X179311905Y-136452429D01*
X179940858Y-134928429D02*
X180037619Y-134928429D01*
X180134381Y-135001000D01*
X180182762Y-135073571D01*
X180231143Y-135218714D01*
X180279524Y-135509000D01*
X180279524Y-135871857D01*
X180231143Y-136162143D01*
X180182762Y-136307286D01*
X180134381Y-136379857D01*
X180037619Y-136452429D01*
X179940858Y-136452429D01*
X179844096Y-136379857D01*
X179795715Y-136307286D01*
X179747334Y-136162143D01*
X179698953Y-135871857D01*
X179698953Y-135509000D01*
X179747334Y-135218714D01*
X179795715Y-135073571D01*
X179844096Y-135001000D01*
X179940858Y-134928429D01*
X180860096Y-136452429D02*
X180763334Y-136379857D01*
X180714953Y-136307286D01*
X180666572Y-136162143D01*
X180666572Y-135726714D01*
X180714953Y-135581571D01*
X180763334Y-135509000D01*
X180860096Y-135436429D01*
X181005238Y-135436429D01*
X181102000Y-135509000D01*
X181150381Y-135581571D01*
X181198762Y-135726714D01*
X181198762Y-136162143D01*
X181150381Y-136307286D01*
X181102000Y-136379857D01*
X181005238Y-136452429D01*
X180860096Y-136452429D01*
X181634191Y-136452429D02*
X181634191Y-134928429D01*
X182069619Y-136452429D02*
X182069619Y-135654143D01*
X182021238Y-135509000D01*
X181924476Y-135436429D01*
X181779334Y-135436429D01*
X181682572Y-135509000D01*
X181634191Y-135581571D01*
X182553429Y-136452429D02*
X182553429Y-135436429D01*
X182553429Y-135581571D02*
X182601810Y-135509000D01*
X182698572Y-135436429D01*
X182843714Y-135436429D01*
X182940476Y-135509000D01*
X182988857Y-135654143D01*
X182988857Y-136452429D01*
X182988857Y-135654143D02*
X183037238Y-135509000D01*
X183134000Y-135436429D01*
X183279143Y-135436429D01*
X183375905Y-135509000D01*
X183424286Y-135654143D01*
X183424286Y-136452429D01*
X184440286Y-136452429D02*
X183859715Y-136452429D01*
X184150001Y-136452429D02*
X184150001Y-134928429D01*
X184053239Y-135146143D01*
X183956477Y-135291286D01*
X183859715Y-135363857D01*
D12*
D16*
X161822191Y-153210381D02*
X161870572Y-153162000D01*
X161967334Y-153113619D01*
X162209238Y-153113619D01*
X162306000Y-153162000D01*
X162354381Y-153210381D01*
X162402762Y-153307143D01*
X162402762Y-153403905D01*
X162354381Y-153549048D01*
X161773810Y-154129619D01*
X162402762Y-154129619D01*
X162789810Y-153210381D02*
X162838191Y-153162000D01*
X162934953Y-153113619D01*
X163176857Y-153113619D01*
X163273619Y-153162000D01*
X163322000Y-153210381D01*
X163370381Y-153307143D01*
X163370381Y-153403905D01*
X163322000Y-153549048D01*
X162741429Y-154129619D01*
X163370381Y-154129619D01*
X164241238Y-153452286D02*
X164241238Y-154129619D01*
X163805810Y-153452286D02*
X163805810Y-153984476D01*
X163854191Y-154081238D01*
X163950953Y-154129619D01*
X164096095Y-154129619D01*
X164192857Y-154081238D01*
X164241238Y-154032857D01*
X164579905Y-153452286D02*
X164966953Y-153452286D01*
X164725048Y-154129619D02*
X164725048Y-153258762D01*
X164773429Y-153162000D01*
X164870191Y-153113619D01*
X164966953Y-153113619D01*
X165837809Y-154129619D02*
X165257238Y-154129619D01*
X165547524Y-154129619D02*
X165547524Y-153113619D01*
X165450762Y-153258762D01*
X165354000Y-153355524D01*
X165257238Y-153403905D01*
X182166381Y-153518809D02*
X182118000Y-153470428D01*
X182069619Y-153373666D01*
X182069619Y-153131762D01*
X182118000Y-153035000D01*
X182166381Y-152986619D01*
X182263143Y-152938238D01*
X182359905Y-152938238D01*
X182505048Y-152986619D01*
X183085619Y-153567190D01*
X183085619Y-152938238D01*
X182166381Y-152551190D02*
X182118000Y-152502809D01*
X182069619Y-152406047D01*
X182069619Y-152164143D01*
X182118000Y-152067381D01*
X182166381Y-152019000D01*
X182263143Y-151970619D01*
X182359905Y-151970619D01*
X182505048Y-152019000D01*
X183085619Y-152599571D01*
X183085619Y-151970619D01*
X182408286Y-151099762D02*
X183085619Y-151099762D01*
X182408286Y-151535190D02*
X182940476Y-151535190D01*
X183037238Y-151486809D01*
X183085619Y-151390047D01*
X183085619Y-151244905D01*
X183037238Y-151148143D01*
X182988857Y-151099762D01*
X182408286Y-150761095D02*
X182408286Y-150374047D01*
X183085619Y-150615952D02*
X182214762Y-150615952D01*
X182118000Y-150567571D01*
X182069619Y-150470809D01*
X182069619Y-150374047D01*
X182166381Y-150083762D02*
X182118000Y-150035381D01*
X182069619Y-149938619D01*
X182069619Y-149696715D01*
X182118000Y-149599953D01*
X182166381Y-149551572D01*
X182263143Y-149503191D01*
X182359905Y-149503191D01*
X182505048Y-149551572D01*
X183085619Y-150132143D01*
X183085619Y-149503191D01*
X154329191Y-152605619D02*
X154425952Y-152605619D01*
X154522714Y-152654000D01*
X154571095Y-152702381D01*
X154619476Y-152799143D01*
X154667857Y-152992667D01*
X154667857Y-153234571D01*
X154619476Y-153428095D01*
X154571095Y-153524857D01*
X154522714Y-153573238D01*
X154425952Y-153621619D01*
X154329191Y-153621619D01*
X154232429Y-153573238D01*
X154184048Y-153524857D01*
X154135667Y-153428095D01*
X154087286Y-153234571D01*
X154087286Y-152992667D01*
X154135667Y-152799143D01*
X154184048Y-152702381D01*
X154232429Y-152654000D01*
X154329191Y-152605619D01*
X155103286Y-153524857D02*
X155151667Y-153573238D01*
X155103286Y-153621619D01*
X155054905Y-153573238D01*
X155103286Y-153524857D01*
X155103286Y-153621619D01*
X156119286Y-153621619D02*
X155538715Y-153621619D01*
X155829001Y-153621619D02*
X155829001Y-152605619D01*
X155732239Y-152750762D01*
X155635477Y-152847524D01*
X155538715Y-152895905D01*
X156990143Y-152944286D02*
X156990143Y-153621619D01*
X156554715Y-152944286D02*
X156554715Y-153476476D01*
X156603096Y-153573238D01*
X156699858Y-153621619D01*
X156845000Y-153621619D01*
X156941762Y-153573238D01*
X156990143Y-153524857D01*
X157328810Y-152944286D02*
X157715858Y-152944286D01*
X157473953Y-153621619D02*
X157473953Y-152750762D01*
X157522334Y-152654000D01*
X157619096Y-152605619D01*
X157715858Y-152605619D01*
X158586714Y-153621619D02*
X158006143Y-153621619D01*
X158296429Y-153621619D02*
X158296429Y-152605619D01*
X158199667Y-152750762D01*
X158102905Y-152847524D01*
X158006143Y-152895905D01*
D10*
X164520715Y-133040381D02*
X164044524Y-133040381D01*
X164044524Y-132040381D01*
X164854048Y-133040381D02*
X164854048Y-132040381D01*
X165187382Y-132754667D01*
X165520715Y-132040381D01*
X165520715Y-133040381D01*
X165901667Y-132040381D02*
X166520715Y-132040381D01*
X166187381Y-132421333D01*
X166330239Y-132421333D01*
X166425477Y-132468952D01*
X166473096Y-132516571D01*
X166520715Y-132611810D01*
X166520715Y-132849905D01*
X166473096Y-132945143D01*
X166425477Y-132992762D01*
X166330239Y-133040381D01*
X166044524Y-133040381D01*
X165949286Y-132992762D01*
X165901667Y-132945143D01*
X167425477Y-132040381D02*
X166949286Y-132040381D01*
X166901667Y-132516571D01*
X166949286Y-132468952D01*
X167044524Y-132421333D01*
X167282620Y-132421333D01*
X167377858Y-132468952D01*
X167425477Y-132516571D01*
X167473096Y-132611810D01*
X167473096Y-132849905D01*
X167425477Y-132945143D01*
X167377858Y-132992762D01*
X167282620Y-133040381D01*
X167044524Y-133040381D01*
X166949286Y-132992762D01*
X166901667Y-132945143D01*
X168768000Y-132040381D02*
X169101333Y-133040381D01*
X169434667Y-132040381D01*
X169768000Y-133040381D02*
X169768000Y-132040381D01*
X170577524Y-132516571D02*
X170720381Y-132564190D01*
X170768000Y-132611810D01*
X170815619Y-132707048D01*
X170815619Y-132849905D01*
X170768000Y-132945143D01*
X170720381Y-132992762D01*
X170625143Y-133040381D01*
X170244190Y-133040381D01*
X170244190Y-132040381D01*
X170577524Y-132040381D01*
X170672762Y-132088000D01*
X170720381Y-132135619D01*
X170768000Y-132230857D01*
X170768000Y-132326095D01*
X170720381Y-132421333D01*
X170672762Y-132468952D01*
X170577524Y-132516571D01*
X170244190Y-132516571D01*
X171815619Y-133040381D02*
X171482285Y-132564190D01*
X171244190Y-133040381D02*
X171244190Y-132040381D01*
X171625143Y-132040381D01*
X171720381Y-132088000D01*
X171768000Y-132135619D01*
X171815619Y-132230857D01*
X171815619Y-132373714D01*
X171768000Y-132468952D01*
X171720381Y-132516571D01*
X171625143Y-132564190D01*
X171244190Y-132564190D01*
X172196571Y-132754667D02*
X172672762Y-132754667D01*
X172101333Y-133040381D02*
X172434666Y-132040381D01*
X172768000Y-133040381D01*
X172958476Y-132040381D02*
X173529905Y-132040381D01*
X173244190Y-133040381D02*
X173244190Y-132040381D01*
X173863238Y-133040381D02*
X173863238Y-132040381D01*
X174529904Y-132040381D02*
X174720381Y-132040381D01*
X174815619Y-132088000D01*
X174910857Y-132183238D01*
X174958476Y-132373714D01*
X174958476Y-132707048D01*
X174910857Y-132897524D01*
X174815619Y-132992762D01*
X174720381Y-133040381D01*
X174529904Y-133040381D01*
X174434666Y-132992762D01*
X174339428Y-132897524D01*
X174291809Y-132707048D01*
X174291809Y-132373714D01*
X174339428Y-132183238D01*
X174434666Y-132088000D01*
X174529904Y-132040381D01*
X175387047Y-133040381D02*
X175387047Y-132040381D01*
X175958476Y-133040381D01*
X175958476Y-132040381D01*
X176196571Y-133135619D02*
X176958476Y-133135619D01*
X177148952Y-132992762D02*
X177291809Y-133040381D01*
X177529905Y-133040381D01*
X177625143Y-132992762D01*
X177672762Y-132945143D01*
X177720381Y-132849905D01*
X177720381Y-132754667D01*
X177672762Y-132659429D01*
X177625143Y-132611810D01*
X177529905Y-132564190D01*
X177339428Y-132516571D01*
X177244190Y-132468952D01*
X177196571Y-132421333D01*
X177148952Y-132326095D01*
X177148952Y-132230857D01*
X177196571Y-132135619D01*
X177244190Y-132088000D01*
X177339428Y-132040381D01*
X177577524Y-132040381D01*
X177720381Y-132088000D01*
X178148952Y-132516571D02*
X178482286Y-132516571D01*
X178625143Y-133040381D02*
X178148952Y-133040381D01*
X178148952Y-132040381D01*
X178625143Y-132040381D01*
X179053714Y-133040381D02*
X179053714Y-132040381D01*
X179625143Y-133040381D01*
X179625143Y-132040381D01*
X180053714Y-132992762D02*
X180196571Y-133040381D01*
X180434667Y-133040381D01*
X180529905Y-132992762D01*
X180577524Y-132945143D01*
X180625143Y-132849905D01*
X180625143Y-132754667D01*
X180577524Y-132659429D01*
X180529905Y-132611810D01*
X180434667Y-132564190D01*
X180244190Y-132516571D01*
X180148952Y-132468952D01*
X180101333Y-132421333D01*
X180053714Y-132326095D01*
X180053714Y-132230857D01*
X180101333Y-132135619D01*
X180148952Y-132088000D01*
X180244190Y-132040381D01*
X180482286Y-132040381D01*
X180625143Y-132088000D01*
X181244190Y-132040381D02*
X181434667Y-132040381D01*
X181529905Y-132088000D01*
X181625143Y-132183238D01*
X181672762Y-132373714D01*
X181672762Y-132707048D01*
X181625143Y-132897524D01*
X181529905Y-132992762D01*
X181434667Y-133040381D01*
X181244190Y-133040381D01*
X181148952Y-132992762D01*
X181053714Y-132897524D01*
X181006095Y-132707048D01*
X181006095Y-132373714D01*
X181053714Y-132183238D01*
X181148952Y-132088000D01*
X181244190Y-132040381D01*
X182672762Y-133040381D02*
X182339428Y-132564190D01*
X182101333Y-133040381D02*
X182101333Y-132040381D01*
X182482286Y-132040381D01*
X182577524Y-132088000D01*
X182625143Y-132135619D01*
X182672762Y-132230857D01*
X182672762Y-132373714D01*
X182625143Y-132468952D01*
X182577524Y-132516571D01*
X182482286Y-132564190D01*
X182101333Y-132564190D01*
X173704524Y-154884381D02*
X173133095Y-154884381D01*
X173418809Y-154884381D02*
X173418809Y-153884381D01*
X173323571Y-154027238D01*
X173228333Y-154122476D01*
X173133095Y-154170095D01*
X174561667Y-153884381D02*
X174371190Y-153884381D01*
X174275952Y-153932000D01*
X174228333Y-153979619D01*
X174133095Y-154122476D01*
X174085476Y-154312952D01*
X174085476Y-154693905D01*
X174133095Y-154789143D01*
X174180714Y-154836762D01*
X174275952Y-154884381D01*
X174466429Y-154884381D01*
X174561667Y-154836762D01*
X174609286Y-154789143D01*
X174656905Y-154693905D01*
X174656905Y-154455810D01*
X174609286Y-154360571D01*
X174561667Y-154312952D01*
X174466429Y-154265333D01*
X174275952Y-154265333D01*
X174180714Y-154312952D01*
X174133095Y-154360571D01*
X174085476Y-154455810D01*
X175085476Y-154884381D02*
X175085476Y-154217714D01*
X175085476Y-154312952D02*
X175133095Y-154265333D01*
X175228333Y-154217714D01*
X175371191Y-154217714D01*
X175466429Y-154265333D01*
X175514048Y-154360571D01*
X175514048Y-154884381D01*
X175514048Y-154360571D02*
X175561667Y-154265333D01*
X175656905Y-154217714D01*
X175799762Y-154217714D01*
X175895000Y-154265333D01*
X175942619Y-154360571D01*
X175942619Y-154884381D01*
X176418809Y-154884381D02*
X176418809Y-153884381D01*
X176847381Y-154884381D02*
X176847381Y-154360571D01*
X176799762Y-154265333D01*
X176704524Y-154217714D01*
X176561666Y-154217714D01*
X176466428Y-154265333D01*
X176418809Y-154312952D01*
X177228333Y-154217714D02*
X177752143Y-154217714D01*
X177228333Y-154884381D01*
X177752143Y-154884381D01*
X178656905Y-154884381D02*
X178085476Y-154884381D01*
X178371190Y-154884381D02*
X178371190Y-153884381D01*
X178275952Y-154027238D01*
X178180714Y-154122476D01*
X178085476Y-154170095D01*
X173585476Y-148185143D02*
X173537857Y-148232762D01*
X173395000Y-148280381D01*
X173299762Y-148280381D01*
X173156904Y-148232762D01*
X173061666Y-148137524D01*
X173014047Y-148042286D01*
X172966428Y-147851810D01*
X172966428Y-147708952D01*
X173014047Y-147518476D01*
X173061666Y-147423238D01*
X173156904Y-147328000D01*
X173299762Y-147280381D01*
X173395000Y-147280381D01*
X173537857Y-147328000D01*
X173585476Y-147375619D01*
X174585476Y-148280381D02*
X174252142Y-147804190D01*
X174014047Y-148280381D02*
X174014047Y-147280381D01*
X174395000Y-147280381D01*
X174490238Y-147328000D01*
X174537857Y-147375619D01*
X174585476Y-147470857D01*
X174585476Y-147613714D01*
X174537857Y-147708952D01*
X174490238Y-147756571D01*
X174395000Y-147804190D01*
X174014047Y-147804190D01*
X175204523Y-147804190D02*
X175204523Y-148280381D01*
X174871190Y-147280381D02*
X175204523Y-147804190D01*
X175537857Y-147280381D01*
X175823571Y-148232762D02*
X175966428Y-148280381D01*
X176204524Y-148280381D01*
X176299762Y-148232762D01*
X176347381Y-148185143D01*
X176395000Y-148089905D01*
X176395000Y-147994667D01*
X176347381Y-147899429D01*
X176299762Y-147851810D01*
X176204524Y-147804190D01*
X176014047Y-147756571D01*
X175918809Y-147708952D01*
X175871190Y-147661333D01*
X175823571Y-147566095D01*
X175823571Y-147470857D01*
X175871190Y-147375619D01*
X175918809Y-147328000D01*
X176014047Y-147280381D01*
X176252143Y-147280381D01*
X176395000Y-147328000D01*
X176680714Y-147280381D02*
X177252143Y-147280381D01*
X176966428Y-148280381D02*
X176966428Y-147280381D01*
X177537857Y-147994667D02*
X178014048Y-147994667D01*
X177442619Y-148280381D02*
X177775952Y-147280381D01*
X178109286Y-148280381D01*
X178918810Y-148280381D02*
X178442619Y-148280381D01*
X178442619Y-147280381D01*
X194492571Y-148169000D02*
X194540190Y-148026143D01*
X194587810Y-147978524D01*
X194683048Y-147930905D01*
X194825905Y-147930905D01*
X194921143Y-147978524D01*
X194968762Y-148026143D01*
X195016381Y-148121381D01*
X195016381Y-148502334D01*
X194016381Y-148502334D01*
X194016381Y-148169000D01*
X194064000Y-148073762D01*
X194111619Y-148026143D01*
X194206857Y-147978524D01*
X194302095Y-147978524D01*
X194397333Y-148026143D01*
X194444952Y-148073762D01*
X194492571Y-148169000D01*
X194492571Y-148502334D01*
X194730667Y-147549953D02*
X194730667Y-147073762D01*
X195016381Y-147645191D02*
X194016381Y-147311858D01*
X195016381Y-146978524D01*
X194016381Y-146788048D02*
X194016381Y-146216619D01*
X195016381Y-146502334D02*
X194016381Y-146502334D01*
X194016381Y-146026143D02*
X194016381Y-145454714D01*
X195016381Y-145740429D02*
X194016381Y-145740429D01*
X194492571Y-145121381D02*
X194492571Y-144788047D01*
X195016381Y-144645190D02*
X195016381Y-145121381D01*
X194016381Y-145121381D01*
X194016381Y-144645190D01*
X195016381Y-143645190D02*
X194540190Y-143978524D01*
X195016381Y-144216619D02*
X194016381Y-144216619D01*
X194016381Y-143835666D01*
X194064000Y-143740428D01*
X194111619Y-143692809D01*
X194206857Y-143645190D01*
X194349714Y-143645190D01*
X194444952Y-143692809D01*
X194492571Y-143740428D01*
X194540190Y-143835666D01*
X194540190Y-144216619D01*
X194540190Y-143026143D02*
X195016381Y-143026143D01*
X194016381Y-143359476D02*
X194540190Y-143026143D01*
X194016381Y-142692809D01*
D17*
X158269215Y-143945429D02*
X158269215Y-142421429D01*
X159466644Y-143800286D02*
X159412215Y-143872857D01*
X159248929Y-143945429D01*
X159140072Y-143945429D01*
X158976787Y-143872857D01*
X158867929Y-143727714D01*
X158813501Y-143582571D01*
X158759072Y-143292286D01*
X158759072Y-143074571D01*
X158813501Y-142784286D01*
X158867929Y-142639143D01*
X158976787Y-142494000D01*
X159140072Y-142421429D01*
X159248929Y-142421429D01*
X159412215Y-142494000D01*
X159466644Y-142566571D01*
X160555215Y-143945429D02*
X159902072Y-143945429D01*
X160228644Y-143945429D02*
X160228644Y-142421429D01*
X160119787Y-142639143D01*
X160010929Y-142784286D01*
X159902072Y-142856857D01*
D12*
D17*
X172075929Y-143510000D02*
X172620215Y-143510000D01*
X171967072Y-143945429D02*
X172348072Y-142421429D01*
X172729072Y-143945429D01*
X172946786Y-142421429D02*
X173599929Y-142421429D01*
X173273358Y-143945429D02*
X173273358Y-142421429D01*
X173980929Y-143945429D02*
X173980929Y-142421429D01*
X174361929Y-143510000D01*
X174742929Y-142421429D01*
X174742929Y-143945429D01*
X175287215Y-143147143D02*
X175668215Y-143147143D01*
X175831501Y-143945429D02*
X175287215Y-143945429D01*
X175287215Y-142421429D01*
X175831501Y-142421429D01*
X176920072Y-142494000D02*
X176811215Y-142421429D01*
X176647929Y-142421429D01*
X176484644Y-142494000D01*
X176375786Y-142639143D01*
X176321358Y-142784286D01*
X176266929Y-143074571D01*
X176266929Y-143292286D01*
X176321358Y-143582571D01*
X176375786Y-143727714D01*
X176484644Y-143872857D01*
X176647929Y-143945429D01*
X176756786Y-143945429D01*
X176920072Y-143872857D01*
X176974501Y-143800286D01*
X176974501Y-143292286D01*
X176756786Y-143292286D01*
X177409929Y-143510000D02*
X177954215Y-143510000D01*
X177301072Y-143945429D02*
X177682072Y-142421429D01*
X178063072Y-143945429D01*
X178335215Y-142421429D02*
X179042786Y-142421429D01*
X178661786Y-143002000D01*
X178825072Y-143002000D01*
X178933929Y-143074571D01*
X178988358Y-143147143D01*
X179042786Y-143292286D01*
X179042786Y-143655143D01*
X178988358Y-143800286D01*
X178933929Y-143872857D01*
X178825072Y-143945429D01*
X178498500Y-143945429D01*
X178389643Y-143872857D01*
X178335215Y-143800286D01*
X179478214Y-142566571D02*
X179532643Y-142494000D01*
X179641500Y-142421429D01*
X179913643Y-142421429D01*
X180022500Y-142494000D01*
X180076929Y-142566571D01*
X180131357Y-142711714D01*
X180131357Y-142856857D01*
X180076929Y-143074571D01*
X179423786Y-143945429D01*
X180131357Y-143945429D01*
X180784500Y-143074571D02*
X180675642Y-143002000D01*
X180621214Y-142929429D01*
X180566785Y-142784286D01*
X180566785Y-142711714D01*
X180621214Y-142566571D01*
X180675642Y-142494000D01*
X180784500Y-142421429D01*
X181002214Y-142421429D01*
X181111071Y-142494000D01*
X181165500Y-142566571D01*
X181219928Y-142711714D01*
X181219928Y-142784286D01*
X181165500Y-142929429D01*
X181111071Y-143002000D01*
X181002214Y-143074571D01*
X180784500Y-143074571D01*
X180675642Y-143147143D01*
X180621214Y-143219714D01*
X180566785Y-143364857D01*
X180566785Y-143655143D01*
X180621214Y-143800286D01*
X180675642Y-143872857D01*
X180784500Y-143945429D01*
X181002214Y-143945429D01*
X181111071Y-143872857D01*
X181165500Y-143800286D01*
X181219928Y-143655143D01*
X181219928Y-143364857D01*
X181165500Y-143219714D01*
X181111071Y-143147143D01*
X181002214Y-143074571D01*
X181709785Y-143364857D02*
X182580642Y-143364857D01*
X183124928Y-143945429D02*
X183124928Y-142421429D01*
X183560356Y-142421429D01*
X183669214Y-142494000D01*
X183723642Y-142566571D01*
X183778071Y-142711714D01*
X183778071Y-142929429D01*
X183723642Y-143074571D01*
X183669214Y-143147143D01*
X183560356Y-143219714D01*
X183124928Y-143219714D01*
D10*
X190523762Y-148676905D02*
X190571381Y-148534048D01*
X190571381Y-148295952D01*
X190523762Y-148200714D01*
X190476143Y-148153095D01*
X190380905Y-148105476D01*
X190285667Y-148105476D01*
X190190429Y-148153095D01*
X190142810Y-148200714D01*
X190095190Y-148295952D01*
X190047571Y-148486429D01*
X189999952Y-148581667D01*
X189952333Y-148629286D01*
X189857095Y-148676905D01*
X189761857Y-148676905D01*
X189666619Y-148629286D01*
X189619000Y-148581667D01*
X189571381Y-148486429D01*
X189571381Y-148248333D01*
X189619000Y-148105476D01*
X189571381Y-147772143D02*
X190571381Y-147534048D01*
X189857095Y-147343571D01*
X190571381Y-147153095D01*
X189571381Y-146915000D01*
X190666619Y-146772143D02*
X190666619Y-146010238D01*
X190571381Y-145772143D02*
X189571381Y-145772143D01*
X189571381Y-145391190D01*
X189619000Y-145295952D01*
X189666619Y-145248333D01*
X189761857Y-145200714D01*
X189904714Y-145200714D01*
X189999952Y-145248333D01*
X190047571Y-145295952D01*
X190095190Y-145391190D01*
X190095190Y-145772143D01*
X189571381Y-144772143D02*
X190380905Y-144772143D01*
X190476143Y-144724524D01*
X190523762Y-144676905D01*
X190571381Y-144581667D01*
X190571381Y-144391190D01*
X190523762Y-144295952D01*
X190476143Y-144248333D01*
X190380905Y-144200714D01*
X189571381Y-144200714D01*
X190523762Y-143772143D02*
X190571381Y-143629286D01*
X190571381Y-143391190D01*
X190523762Y-143295952D01*
X190476143Y-143248333D01*
X190380905Y-143200714D01*
X190285667Y-143200714D01*
X190190429Y-143248333D01*
X190142810Y-143295952D01*
X190095190Y-143391190D01*
X190047571Y-143581667D01*
X189999952Y-143676905D01*
X189952333Y-143724524D01*
X189857095Y-143772143D01*
X189761857Y-143772143D01*
X189666619Y-143724524D01*
X189619000Y-143676905D01*
X189571381Y-143581667D01*
X189571381Y-143343571D01*
X189619000Y-143200714D01*
X190571381Y-142772143D02*
X189571381Y-142772143D01*
X190047571Y-142772143D02*
X190047571Y-142200714D01*
X190571381Y-142200714D02*
X189571381Y-142200714D01*
X155710001Y-135691571D02*
X155852858Y-135739190D01*
X155900477Y-135786810D01*
X155948096Y-135882048D01*
X155948096Y-136024905D01*
X155900477Y-136120143D01*
X155852858Y-136167762D01*
X155757620Y-136215381D01*
X155376667Y-136215381D01*
X155376667Y-135215381D01*
X155710001Y-135215381D01*
X155805239Y-135263000D01*
X155852858Y-135310619D01*
X155900477Y-135405857D01*
X155900477Y-135501095D01*
X155852858Y-135596333D01*
X155805239Y-135643952D01*
X155710001Y-135691571D01*
X155376667Y-135691571D01*
X156376667Y-136215381D02*
X156376667Y-135215381D01*
X156710001Y-135929667D01*
X157043334Y-135215381D01*
X157043334Y-136215381D01*
X155099095Y-131135381D02*
X155099095Y-130135381D01*
X156146714Y-131040143D02*
X156099095Y-131087762D01*
X155956238Y-131135381D01*
X155861000Y-131135381D01*
X155718142Y-131087762D01*
X155622904Y-130992524D01*
X155575285Y-130897286D01*
X155527666Y-130706810D01*
X155527666Y-130563952D01*
X155575285Y-130373476D01*
X155622904Y-130278238D01*
X155718142Y-130183000D01*
X155861000Y-130135381D01*
X155956238Y-130135381D01*
X156099095Y-130183000D01*
X156146714Y-130230619D01*
X156527666Y-130230619D02*
X156575285Y-130183000D01*
X156670523Y-130135381D01*
X156908619Y-130135381D01*
X157003857Y-130183000D01*
X157051476Y-130230619D01*
X157099095Y-130325857D01*
X157099095Y-130421095D01*
X157051476Y-130563952D01*
X156480047Y-131135381D01*
X157099095Y-131135381D01*
X157289571Y-131230619D02*
X158051476Y-131230619D01*
X158765762Y-131135381D02*
X158289571Y-131135381D01*
X158289571Y-130135381D01*
X159670524Y-131040143D02*
X159622905Y-131087762D01*
X159480048Y-131135381D01*
X159384810Y-131135381D01*
X159241952Y-131087762D01*
X159146714Y-130992524D01*
X159099095Y-130897286D01*
X159051476Y-130706810D01*
X159051476Y-130563952D01*
X159099095Y-130373476D01*
X159146714Y-130278238D01*
X159241952Y-130183000D01*
X159384810Y-130135381D01*
X159480048Y-130135381D01*
X159622905Y-130183000D01*
X159670524Y-130230619D01*
X160099095Y-131135381D02*
X160099095Y-130135381D01*
X160337190Y-130135381D01*
X160480048Y-130183000D01*
X160575286Y-130278238D01*
X160622905Y-130373476D01*
X160670524Y-130563952D01*
X160670524Y-130706810D01*
X160622905Y-130897286D01*
X160575286Y-130992524D01*
X160480048Y-131087762D01*
X160337190Y-131135381D01*
X160099095Y-131135381D01*
D18*
X186708143Y-131027714D02*
X186345286Y-131027714D01*
X186345286Y-130265714D01*
X186962143Y-130628571D02*
X187216143Y-130628571D01*
X187325000Y-131027714D02*
X186962143Y-131027714D01*
X186962143Y-130265714D01*
X187325000Y-130265714D01*
X187651572Y-131027714D02*
X187651572Y-130265714D01*
X187833000Y-130265714D01*
X187941857Y-130302000D01*
X188014429Y-130374571D01*
X188050714Y-130447143D01*
X188087000Y-130592286D01*
X188087000Y-130701143D01*
X188050714Y-130846286D01*
X188014429Y-130918857D01*
X187941857Y-130991429D01*
X187833000Y-131027714D01*
X187651572Y-131027714D01*
M02*
