G04 #@! TF.FileFunction,Soldermask,Top*
%FSLAX46Y46*%
G04 Gerber Fmt 4.6, Leading zero omitted, Abs format (unit mm)*
G04 Created by KiCad (PCBNEW 0.201507042246+5884~23~ubuntu15.04.1-product) date Mon 06 Jul 2015 21:28:29 BST*
%MOMM*%
G01*
G04 APERTURE LIST*
%ADD10C,0.150000*%
%ADD11C,1.700000*%
%ADD12C,1.524000*%
%ADD13C,1.397000*%
%ADD14C,1.200000*%
%ADD15R,1.397000X1.397000*%
%ADD16C,1.676400*%
%ADD17C,4.064000*%
G04 APERTURE END LIST*
D10*
D11*
X200406000Y-142367000D03*
X200406000Y-132715000D03*
X149352000Y-144653000D03*
X149352000Y-142113000D03*
X149352000Y-147193000D03*
X149352000Y-149733000D03*
X149352000Y-139573000D03*
X149352000Y-137033000D03*
D12*
X152908000Y-150622000D03*
X164338000Y-150622000D03*
X175387000Y-135763000D03*
X186817000Y-135763000D03*
D13*
X167894000Y-153035000D03*
X167894000Y-150495000D03*
X184912000Y-153035000D03*
X184912000Y-150495000D03*
X152019000Y-153162000D03*
X149479000Y-153162000D03*
D11*
X164465000Y-135763000D03*
X167005000Y-135763000D03*
X161925000Y-135763000D03*
X172339000Y-135763000D03*
X169799000Y-135763000D03*
D14*
X178435000Y-151638000D03*
X173355000Y-151638000D03*
D11*
X194437000Y-150368000D03*
X194437000Y-152908000D03*
D13*
X156845000Y-147066000D03*
X159385000Y-147066000D03*
X161925000Y-147066000D03*
X164465000Y-147066000D03*
X167005000Y-147066000D03*
X169545000Y-147066000D03*
X172085000Y-147066000D03*
X174625000Y-147066000D03*
X177165000Y-147066000D03*
X179705000Y-147066000D03*
X182245000Y-147066000D03*
X184785000Y-147066000D03*
X187325000Y-147066000D03*
D15*
X154305000Y-147066000D03*
D13*
X187325000Y-139446000D03*
X184785000Y-139446000D03*
X182245000Y-139446000D03*
X179705000Y-139446000D03*
X177165000Y-139446000D03*
X174625000Y-139446000D03*
X172085000Y-139446000D03*
X169545000Y-139446000D03*
X167005000Y-139446000D03*
X164465000Y-139446000D03*
X161925000Y-139446000D03*
X159385000Y-139446000D03*
X156845000Y-139446000D03*
X154305000Y-139446000D03*
D11*
X190881000Y-153289000D03*
X188341000Y-153289000D03*
X190881000Y-150368000D03*
X188341000Y-150368000D03*
X159004000Y-135763000D03*
X159131000Y-132715000D03*
X156591000Y-132715000D03*
X161671000Y-132715000D03*
X154051000Y-132715000D03*
D16*
X185801000Y-132715000D03*
X188341000Y-132715000D03*
D17*
X148971000Y-132969000D03*
X198882000Y-152019000D03*
M02*
