G04 #@! TF.FileFunction,Legend,Bot*
%FSLAX46Y46*%
G04 Gerber Fmt 4.6, Leading zero omitted, Abs format (unit mm)*
G04 Created by KiCad (PCBNEW 0.201507042246+5884~23~ubuntu15.04.1-product) date Mon 06 Jul 2015 21:28:29 BST*
%MOMM*%
G01*
G04 APERTURE LIST*
%ADD10C,0.150000*%
%ADD11C,0.300000*%
%ADD12C,0.002540*%
G04 APERTURE END LIST*
D10*
D11*
X184553142Y-142807571D02*
X183481713Y-142807571D01*
X184124570Y-142164714D02*
X184553142Y-144093286D01*
X183624570Y-143450429D02*
X184695999Y-143450429D01*
X184053142Y-144093286D02*
X183624570Y-142164714D01*
X183195999Y-142307571D02*
X182338856Y-142307571D01*
X182767427Y-143807571D02*
X182767427Y-142307571D01*
X181838856Y-143807571D02*
X181838856Y-142307571D01*
X181195999Y-143807571D02*
X181195999Y-143021857D01*
X181267428Y-142879000D01*
X181410285Y-142807571D01*
X181624570Y-142807571D01*
X181767428Y-142879000D01*
X181838856Y-142950429D01*
X179910285Y-143736143D02*
X180053142Y-143807571D01*
X180338856Y-143807571D01*
X180481713Y-143736143D01*
X180553142Y-143593286D01*
X180553142Y-143021857D01*
X180481713Y-142879000D01*
X180338856Y-142807571D01*
X180053142Y-142807571D01*
X179910285Y-142879000D01*
X179838856Y-143021857D01*
X179838856Y-143164714D01*
X180553142Y-143307571D01*
X179195999Y-143807571D02*
X179195999Y-142307571D01*
X179195999Y-143021857D02*
X178338856Y-143021857D01*
X178338856Y-143807571D02*
X178338856Y-142307571D01*
X176981713Y-143807571D02*
X176981713Y-143021857D01*
X177053142Y-142879000D01*
X177195999Y-142807571D01*
X177481713Y-142807571D01*
X177624570Y-142879000D01*
X176981713Y-143736143D02*
X177124570Y-143807571D01*
X177481713Y-143807571D01*
X177624570Y-143736143D01*
X177695999Y-143593286D01*
X177695999Y-143450429D01*
X177624570Y-143307571D01*
X177481713Y-143236143D01*
X177124570Y-143236143D01*
X176981713Y-143164714D01*
X175624570Y-143736143D02*
X175767427Y-143807571D01*
X176053141Y-143807571D01*
X176195999Y-143736143D01*
X176267427Y-143664714D01*
X176338856Y-143521857D01*
X176338856Y-143093286D01*
X176267427Y-142950429D01*
X176195999Y-142879000D01*
X176053141Y-142807571D01*
X175767427Y-142807571D01*
X175624570Y-142879000D01*
X174981713Y-143807571D02*
X174981713Y-142307571D01*
X174838856Y-143236143D02*
X174410285Y-143807571D01*
X174410285Y-142807571D02*
X174981713Y-143379000D01*
X173124570Y-143807571D02*
X173124570Y-143021857D01*
X173195999Y-142879000D01*
X173338856Y-142807571D01*
X173624570Y-142807571D01*
X173767427Y-142879000D01*
X173124570Y-143736143D02*
X173267427Y-143807571D01*
X173624570Y-143807571D01*
X173767427Y-143736143D01*
X173838856Y-143593286D01*
X173838856Y-143450429D01*
X173767427Y-143307571D01*
X173624570Y-143236143D01*
X173267427Y-143236143D01*
X173124570Y-143164714D01*
X171767427Y-143807571D02*
X171767427Y-142307571D01*
X171767427Y-143736143D02*
X171910284Y-143807571D01*
X172195998Y-143807571D01*
X172338856Y-143736143D01*
X172410284Y-143664714D01*
X172481713Y-143521857D01*
X172481713Y-143093286D01*
X172410284Y-142950429D01*
X172338856Y-142879000D01*
X172195998Y-142807571D01*
X171910284Y-142807571D01*
X171767427Y-142879000D01*
X170410284Y-143807571D02*
X170410284Y-143021857D01*
X170481713Y-142879000D01*
X170624570Y-142807571D01*
X170910284Y-142807571D01*
X171053141Y-142879000D01*
X170410284Y-143736143D02*
X170553141Y-143807571D01*
X170910284Y-143807571D01*
X171053141Y-143736143D01*
X171124570Y-143593286D01*
X171124570Y-143450429D01*
X171053141Y-143307571D01*
X170910284Y-143236143D01*
X170553141Y-143236143D01*
X170410284Y-143164714D01*
X169838855Y-142807571D02*
X169481712Y-143807571D01*
X169124570Y-142807571D02*
X169481712Y-143807571D01*
X169624570Y-144164714D01*
X169695998Y-144236143D01*
X169838855Y-144307571D01*
X168553141Y-143807571D02*
X168553141Y-142307571D01*
X167981713Y-142307571D01*
X167838855Y-142379000D01*
X167767427Y-142450429D01*
X167695998Y-142593286D01*
X167695998Y-142807571D01*
X167767427Y-142950429D01*
X167838855Y-143021857D01*
X167981713Y-143093286D01*
X168553141Y-143093286D01*
X167053141Y-143807571D02*
X167053141Y-142807571D01*
X167053141Y-143093286D02*
X166981713Y-142950429D01*
X166910284Y-142879000D01*
X166767427Y-142807571D01*
X166624570Y-142807571D01*
X166124570Y-143807571D02*
X166124570Y-142807571D01*
X166124570Y-142307571D02*
X166195999Y-142379000D01*
X166124570Y-142450429D01*
X166053142Y-142379000D01*
X166124570Y-142307571D01*
X166124570Y-142450429D01*
X165553141Y-142807571D02*
X164767427Y-142807571D01*
X165553141Y-143807571D01*
X164767427Y-143807571D01*
X163624570Y-143736143D02*
X163767427Y-143807571D01*
X164053141Y-143807571D01*
X164195998Y-143736143D01*
X164267427Y-143593286D01*
X164267427Y-143021857D01*
X164195998Y-142879000D01*
X164053141Y-142807571D01*
X163767427Y-142807571D01*
X163624570Y-142879000D01*
X163553141Y-143021857D01*
X163553141Y-143164714D01*
X164267427Y-143307571D01*
X162981713Y-142450429D02*
X162910284Y-142379000D01*
X162767427Y-142307571D01*
X162410284Y-142307571D01*
X162267427Y-142379000D01*
X162195998Y-142450429D01*
X162124570Y-142593286D01*
X162124570Y-142736143D01*
X162195998Y-142950429D01*
X163053141Y-143807571D01*
X162124570Y-143807571D01*
X161195999Y-142307571D02*
X161053142Y-142307571D01*
X160910285Y-142379000D01*
X160838856Y-142450429D01*
X160767427Y-142593286D01*
X160695999Y-142879000D01*
X160695999Y-143236143D01*
X160767427Y-143521857D01*
X160838856Y-143664714D01*
X160910285Y-143736143D01*
X161053142Y-143807571D01*
X161195999Y-143807571D01*
X161338856Y-143736143D01*
X161410285Y-143664714D01*
X161481713Y-143521857D01*
X161553142Y-143236143D01*
X161553142Y-142879000D01*
X161481713Y-142593286D01*
X161410285Y-142450429D01*
X161338856Y-142379000D01*
X161195999Y-142307571D01*
X159267428Y-143807571D02*
X160124571Y-143807571D01*
X159695999Y-143807571D02*
X159695999Y-142307571D01*
X159838856Y-142521857D01*
X159981714Y-142664714D01*
X160124571Y-142736143D01*
X157910285Y-142307571D02*
X158624571Y-142307571D01*
X158696000Y-143021857D01*
X158624571Y-142950429D01*
X158481714Y-142879000D01*
X158124571Y-142879000D01*
X157981714Y-142950429D01*
X157910285Y-143021857D01*
X157838857Y-143164714D01*
X157838857Y-143521857D01*
X157910285Y-143664714D01*
X157981714Y-143736143D01*
X158124571Y-143807571D01*
X158481714Y-143807571D01*
X158624571Y-143736143D01*
X158696000Y-143664714D01*
X197925571Y-133862429D02*
X197925571Y-134933858D01*
X197282714Y-134291001D02*
X199211286Y-133862429D01*
X198568429Y-134791001D02*
X198568429Y-133719572D01*
X199211286Y-134362429D02*
X197282714Y-134791001D01*
X197425571Y-135219572D02*
X197425571Y-136076715D01*
X198925571Y-135648144D02*
X197425571Y-135648144D01*
X199068429Y-136219572D02*
X199068429Y-137362429D01*
X198925571Y-137719572D02*
X197425571Y-137719572D01*
X198139857Y-137719572D02*
X198139857Y-138576715D01*
X198925571Y-138576715D02*
X197425571Y-138576715D01*
X199068429Y-138933858D02*
X199068429Y-140076715D01*
X198854143Y-140362429D02*
X198925571Y-140576715D01*
X198925571Y-140933858D01*
X198854143Y-141076715D01*
X198782714Y-141148144D01*
X198639857Y-141219572D01*
X198497000Y-141219572D01*
X198354143Y-141148144D01*
X198282714Y-141076715D01*
X198211286Y-140933858D01*
X198139857Y-140648144D01*
X198068429Y-140505286D01*
X197997000Y-140433858D01*
X197854143Y-140362429D01*
X197711286Y-140362429D01*
X197568429Y-140433858D01*
X197497000Y-140505286D01*
X197425571Y-140648144D01*
X197425571Y-141005286D01*
X197497000Y-141219572D01*
D12*
G36*
X196413120Y-141041120D02*
X196413120Y-140931900D01*
X193344800Y-140931900D01*
X193207640Y-140931900D01*
X193062860Y-140931900D01*
X192951100Y-140931900D01*
X192867280Y-140929360D01*
X192808860Y-140926820D01*
X192770760Y-140921740D01*
X192747900Y-140916660D01*
X192740280Y-140909040D01*
X192735200Y-140883640D01*
X192722500Y-140830300D01*
X192707260Y-140751560D01*
X192686940Y-140652500D01*
X192666620Y-140540740D01*
X192653920Y-140467080D01*
X192631060Y-140350240D01*
X192610740Y-140243560D01*
X192592960Y-140154660D01*
X192577720Y-140088620D01*
X192570100Y-140050520D01*
X192565020Y-140040360D01*
X192544700Y-140030200D01*
X192496440Y-140007340D01*
X192427860Y-139976860D01*
X192346580Y-139941300D01*
X192257680Y-139903200D01*
X192166240Y-139865100D01*
X192079880Y-139829540D01*
X192006220Y-139799060D01*
X191950340Y-139778740D01*
X191917320Y-139766040D01*
X191914780Y-139766040D01*
X191889380Y-139776200D01*
X191841120Y-139801600D01*
X191780160Y-139842240D01*
X191721740Y-139880340D01*
X191564260Y-139992100D01*
X191432180Y-140081000D01*
X191328040Y-140149580D01*
X191249300Y-140200380D01*
X191193420Y-140233400D01*
X191160400Y-140248640D01*
X191155320Y-140251180D01*
X191135000Y-140238480D01*
X191094360Y-140205460D01*
X191038480Y-140154660D01*
X190969900Y-140088620D01*
X190893700Y-140017500D01*
X190814960Y-139938760D01*
X190736220Y-139860020D01*
X190662560Y-139786360D01*
X190599060Y-139720320D01*
X190548260Y-139666980D01*
X190517780Y-139628880D01*
X190507620Y-139613640D01*
X190517780Y-139593320D01*
X190545720Y-139547600D01*
X190586360Y-139481560D01*
X190642240Y-139400280D01*
X190705740Y-139303760D01*
X190759080Y-139227560D01*
X190827660Y-139123420D01*
X190891160Y-139031980D01*
X190941960Y-138953240D01*
X190980060Y-138892280D01*
X191002920Y-138851640D01*
X191010540Y-138838940D01*
X191002920Y-138813540D01*
X190985140Y-138760200D01*
X190957200Y-138689080D01*
X190921640Y-138605260D01*
X190886080Y-138513820D01*
X190845440Y-138424920D01*
X190809880Y-138343640D01*
X190776860Y-138275060D01*
X190754000Y-138226800D01*
X190738760Y-138203940D01*
X190738760Y-138203940D01*
X190713360Y-138196320D01*
X190660020Y-138183620D01*
X190581280Y-138168380D01*
X190482220Y-138148060D01*
X190370460Y-138127740D01*
X190309500Y-138115040D01*
X190192660Y-138094720D01*
X190083440Y-138071860D01*
X189992000Y-138054080D01*
X189920880Y-138038840D01*
X189875160Y-138028680D01*
X189865000Y-138026140D01*
X189852300Y-138018520D01*
X189844680Y-138010900D01*
X189837060Y-137993120D01*
X189831980Y-137965180D01*
X189829440Y-137922000D01*
X189826900Y-137858500D01*
X189826900Y-137769600D01*
X189824360Y-137652760D01*
X189824360Y-137561320D01*
X189826900Y-137431780D01*
X189826900Y-137317480D01*
X189831980Y-137223500D01*
X189834520Y-137152380D01*
X189839600Y-137111740D01*
X189842140Y-137101580D01*
X189862460Y-137096500D01*
X189915800Y-137083800D01*
X189992000Y-137068560D01*
X190091060Y-137048240D01*
X190202820Y-137027920D01*
X190296800Y-137010140D01*
X190416180Y-136987280D01*
X190527940Y-136964420D01*
X190621920Y-136944100D01*
X190693040Y-136926320D01*
X190738760Y-136913620D01*
X190751460Y-136906000D01*
X190769240Y-136880600D01*
X190792100Y-136829800D01*
X190822580Y-136758680D01*
X190858140Y-136674860D01*
X190893700Y-136583420D01*
X190929260Y-136494520D01*
X190962280Y-136410700D01*
X190985140Y-136339580D01*
X191000380Y-136288780D01*
X191005460Y-136265920D01*
X190992760Y-136245600D01*
X190962280Y-136197340D01*
X190919100Y-136131300D01*
X190863220Y-136047480D01*
X190799720Y-135950960D01*
X190751460Y-135884920D01*
X190682880Y-135783320D01*
X190621920Y-135694420D01*
X190571120Y-135615680D01*
X190533020Y-135554720D01*
X190512700Y-135519160D01*
X190507620Y-135509000D01*
X190520320Y-135488680D01*
X190553340Y-135448040D01*
X190606680Y-135392160D01*
X190675260Y-135321040D01*
X190756540Y-135237220D01*
X190820040Y-135173720D01*
X190924180Y-135069580D01*
X191008000Y-134988300D01*
X191071500Y-134929880D01*
X191117220Y-134894320D01*
X191147700Y-134874000D01*
X191165480Y-134871460D01*
X191188340Y-134884160D01*
X191236600Y-134912100D01*
X191307720Y-134957820D01*
X191391540Y-135013700D01*
X191485520Y-135077200D01*
X191541400Y-135115300D01*
X191640460Y-135181340D01*
X191731900Y-135242300D01*
X191810640Y-135293100D01*
X191869060Y-135328660D01*
X191907160Y-135348980D01*
X191917320Y-135351520D01*
X191942720Y-135343900D01*
X191993520Y-135326120D01*
X192064640Y-135298180D01*
X192148460Y-135262620D01*
X192239900Y-135227060D01*
X192331340Y-135188960D01*
X192412620Y-135150860D01*
X192483740Y-135120380D01*
X192534540Y-135094980D01*
X192559940Y-135082280D01*
X192559940Y-135082280D01*
X192567560Y-135059420D01*
X192580260Y-135008620D01*
X192598040Y-134932420D01*
X192618360Y-134835900D01*
X192638680Y-134724140D01*
X192653920Y-134650480D01*
X192676780Y-134531100D01*
X192697100Y-134424420D01*
X192714880Y-134332980D01*
X192727580Y-134261860D01*
X192737740Y-134218680D01*
X192740280Y-134208520D01*
X192760600Y-134200900D01*
X192811400Y-134193280D01*
X192885060Y-134190740D01*
X192976500Y-134185660D01*
X193083180Y-134183120D01*
X193192400Y-134183120D01*
X193304160Y-134183120D01*
X193410840Y-134183120D01*
X193504820Y-134188200D01*
X193583560Y-134193280D01*
X193636900Y-134198360D01*
X193662300Y-134205980D01*
X193662300Y-134205980D01*
X193669920Y-134231380D01*
X193682620Y-134284720D01*
X193700400Y-134360920D01*
X193720720Y-134459980D01*
X193741040Y-134571740D01*
X193753740Y-134632700D01*
X193774060Y-134747000D01*
X193796920Y-134853680D01*
X193817240Y-134942580D01*
X193832480Y-135008620D01*
X193845180Y-135049260D01*
X193850260Y-135056880D01*
X193873120Y-135069580D01*
X193923920Y-135092440D01*
X193995040Y-135122920D01*
X194078860Y-135161020D01*
X194172840Y-135196580D01*
X194266820Y-135234680D01*
X194355720Y-135270240D01*
X194431920Y-135300720D01*
X194492880Y-135321040D01*
X194528440Y-135331200D01*
X194533520Y-135333740D01*
X194553840Y-135323580D01*
X194599560Y-135295640D01*
X194665600Y-135252460D01*
X194746880Y-135199120D01*
X194840860Y-135135620D01*
X194891660Y-135100060D01*
X194990720Y-135031480D01*
X195079620Y-134973060D01*
X195158360Y-134924800D01*
X195216780Y-134889240D01*
X195252340Y-134868920D01*
X195262500Y-134866380D01*
X195280280Y-134879080D01*
X195320920Y-134912100D01*
X195376800Y-134962900D01*
X195445380Y-135026400D01*
X195521580Y-135100060D01*
X195600320Y-135176260D01*
X195679060Y-135255000D01*
X195752720Y-135328660D01*
X195816220Y-135394700D01*
X195867020Y-135448040D01*
X195900040Y-135483600D01*
X195910200Y-135501380D01*
X195900040Y-135519160D01*
X195874640Y-135562340D01*
X195831460Y-135625840D01*
X195778120Y-135707120D01*
X195714620Y-135798560D01*
X195676520Y-135854440D01*
X195610480Y-135953500D01*
X195552060Y-136042400D01*
X195501260Y-136118600D01*
X195465700Y-136177020D01*
X195445380Y-136212580D01*
X195442840Y-136220200D01*
X195450460Y-136245600D01*
X195473320Y-136293860D01*
X195503800Y-136357360D01*
X195526660Y-136400540D01*
X195564760Y-136476740D01*
X195587620Y-136527540D01*
X195587620Y-136565640D01*
X195564760Y-136593580D01*
X195516500Y-136618980D01*
X195435220Y-136652000D01*
X195425060Y-136657080D01*
X195376800Y-136677400D01*
X195298060Y-136707880D01*
X195199000Y-136748520D01*
X195079620Y-136796780D01*
X194950080Y-136852660D01*
X194810380Y-136908540D01*
X194721480Y-136946640D01*
X194586860Y-137002520D01*
X194459860Y-137053320D01*
X194350640Y-137096500D01*
X194256660Y-137134600D01*
X194185540Y-137162540D01*
X194139820Y-137177780D01*
X194127120Y-137182860D01*
X194104260Y-137167620D01*
X194068700Y-137132060D01*
X194025520Y-137078720D01*
X194007740Y-137055860D01*
X193883280Y-136906000D01*
X193751200Y-136791700D01*
X193611500Y-136707880D01*
X193459100Y-136654540D01*
X193288920Y-136629140D01*
X193197480Y-136626600D01*
X193014600Y-136641840D01*
X192846960Y-136690100D01*
X192692020Y-136773920D01*
X192552320Y-136888220D01*
X192511680Y-136931400D01*
X192405000Y-137076180D01*
X192328800Y-137233660D01*
X192283080Y-137398760D01*
X192270380Y-137566400D01*
X192285620Y-137736580D01*
X192333880Y-137899140D01*
X192410080Y-138054080D01*
X192519300Y-138193780D01*
X192565020Y-138242040D01*
X192709800Y-138356340D01*
X192862200Y-138435080D01*
X193027300Y-138483340D01*
X193207640Y-138498580D01*
X193210180Y-138498580D01*
X193390520Y-138480800D01*
X193560700Y-138432540D01*
X193715640Y-138351260D01*
X193857880Y-138234420D01*
X193989960Y-138087100D01*
X194020440Y-138046460D01*
X194061080Y-137993120D01*
X194096640Y-137955020D01*
X194122040Y-137937240D01*
X194124580Y-137934700D01*
X194149980Y-137942320D01*
X194200780Y-137960100D01*
X194269360Y-137988040D01*
X194350640Y-138021060D01*
X194360800Y-138023600D01*
X194434460Y-138054080D01*
X194533520Y-138097260D01*
X194652900Y-138145520D01*
X194784980Y-138201400D01*
X194924680Y-138259820D01*
X195064380Y-138315700D01*
X195074540Y-138320780D01*
X195201540Y-138374120D01*
X195315840Y-138422380D01*
X195417440Y-138465560D01*
X195498720Y-138501120D01*
X195557140Y-138526520D01*
X195590160Y-138541760D01*
X195592700Y-138544300D01*
X195592700Y-138567160D01*
X195574920Y-138612880D01*
X195546980Y-138678920D01*
X195526660Y-138719560D01*
X195491100Y-138790680D01*
X195463160Y-138849100D01*
X195445380Y-138889740D01*
X195442840Y-138902440D01*
X195453000Y-138922760D01*
X195480940Y-138968480D01*
X195521580Y-139034520D01*
X195574920Y-139115800D01*
X195638420Y-139207240D01*
X195656200Y-139235180D01*
X195722240Y-139329160D01*
X195780660Y-139418060D01*
X195831460Y-139491720D01*
X195867020Y-139547600D01*
X195889880Y-139580620D01*
X195892420Y-139585700D01*
X195897500Y-139600940D01*
X195894960Y-139616180D01*
X195884800Y-139636500D01*
X195864480Y-139666980D01*
X195826380Y-139707620D01*
X195773040Y-139766040D01*
X195699380Y-139839700D01*
X195602860Y-139938760D01*
X195602860Y-139938760D01*
X195508880Y-140030200D01*
X195425060Y-140111480D01*
X195356480Y-140174980D01*
X195300600Y-140223240D01*
X195267580Y-140246100D01*
X195259960Y-140251180D01*
X195234560Y-140241020D01*
X195186300Y-140213080D01*
X195117720Y-140172440D01*
X195033900Y-140116560D01*
X194939920Y-140053060D01*
X194886580Y-140017500D01*
X194790060Y-139951460D01*
X194701160Y-139893040D01*
X194627500Y-139842240D01*
X194571620Y-139806680D01*
X194538600Y-139786360D01*
X194533520Y-139783820D01*
X194510660Y-139791440D01*
X194459860Y-139809220D01*
X194391280Y-139837160D01*
X194307460Y-139867640D01*
X194216020Y-139905740D01*
X194124580Y-139943840D01*
X194035680Y-139979400D01*
X193956940Y-140012420D01*
X193898520Y-140037820D01*
X193862960Y-140055600D01*
X193857880Y-140058140D01*
X193845180Y-140073380D01*
X193835020Y-140106400D01*
X193819780Y-140157200D01*
X193802000Y-140230860D01*
X193781680Y-140327380D01*
X193758820Y-140454380D01*
X193728340Y-140611860D01*
X193710560Y-140708380D01*
X193697860Y-140784580D01*
X193685160Y-140848080D01*
X193675000Y-140891260D01*
X193672460Y-140901420D01*
X193667380Y-140911580D01*
X193657220Y-140919200D01*
X193631820Y-140924280D01*
X193593720Y-140926820D01*
X193535300Y-140929360D01*
X193454020Y-140931900D01*
X193344800Y-140931900D01*
X196413120Y-140931900D01*
X196413120Y-137541000D01*
X196413120Y-134040880D01*
X192913000Y-134040880D01*
X189412880Y-134040880D01*
X189412880Y-137541000D01*
X189412880Y-141041120D01*
X192913000Y-141041120D01*
X196413120Y-141041120D01*
X196413120Y-141041120D01*
X196413120Y-141041120D01*
G37*
X196413120Y-141041120D02*
X196413120Y-140931900D01*
X193344800Y-140931900D01*
X193207640Y-140931900D01*
X193062860Y-140931900D01*
X192951100Y-140931900D01*
X192867280Y-140929360D01*
X192808860Y-140926820D01*
X192770760Y-140921740D01*
X192747900Y-140916660D01*
X192740280Y-140909040D01*
X192735200Y-140883640D01*
X192722500Y-140830300D01*
X192707260Y-140751560D01*
X192686940Y-140652500D01*
X192666620Y-140540740D01*
X192653920Y-140467080D01*
X192631060Y-140350240D01*
X192610740Y-140243560D01*
X192592960Y-140154660D01*
X192577720Y-140088620D01*
X192570100Y-140050520D01*
X192565020Y-140040360D01*
X192544700Y-140030200D01*
X192496440Y-140007340D01*
X192427860Y-139976860D01*
X192346580Y-139941300D01*
X192257680Y-139903200D01*
X192166240Y-139865100D01*
X192079880Y-139829540D01*
X192006220Y-139799060D01*
X191950340Y-139778740D01*
X191917320Y-139766040D01*
X191914780Y-139766040D01*
X191889380Y-139776200D01*
X191841120Y-139801600D01*
X191780160Y-139842240D01*
X191721740Y-139880340D01*
X191564260Y-139992100D01*
X191432180Y-140081000D01*
X191328040Y-140149580D01*
X191249300Y-140200380D01*
X191193420Y-140233400D01*
X191160400Y-140248640D01*
X191155320Y-140251180D01*
X191135000Y-140238480D01*
X191094360Y-140205460D01*
X191038480Y-140154660D01*
X190969900Y-140088620D01*
X190893700Y-140017500D01*
X190814960Y-139938760D01*
X190736220Y-139860020D01*
X190662560Y-139786360D01*
X190599060Y-139720320D01*
X190548260Y-139666980D01*
X190517780Y-139628880D01*
X190507620Y-139613640D01*
X190517780Y-139593320D01*
X190545720Y-139547600D01*
X190586360Y-139481560D01*
X190642240Y-139400280D01*
X190705740Y-139303760D01*
X190759080Y-139227560D01*
X190827660Y-139123420D01*
X190891160Y-139031980D01*
X190941960Y-138953240D01*
X190980060Y-138892280D01*
X191002920Y-138851640D01*
X191010540Y-138838940D01*
X191002920Y-138813540D01*
X190985140Y-138760200D01*
X190957200Y-138689080D01*
X190921640Y-138605260D01*
X190886080Y-138513820D01*
X190845440Y-138424920D01*
X190809880Y-138343640D01*
X190776860Y-138275060D01*
X190754000Y-138226800D01*
X190738760Y-138203940D01*
X190738760Y-138203940D01*
X190713360Y-138196320D01*
X190660020Y-138183620D01*
X190581280Y-138168380D01*
X190482220Y-138148060D01*
X190370460Y-138127740D01*
X190309500Y-138115040D01*
X190192660Y-138094720D01*
X190083440Y-138071860D01*
X189992000Y-138054080D01*
X189920880Y-138038840D01*
X189875160Y-138028680D01*
X189865000Y-138026140D01*
X189852300Y-138018520D01*
X189844680Y-138010900D01*
X189837060Y-137993120D01*
X189831980Y-137965180D01*
X189829440Y-137922000D01*
X189826900Y-137858500D01*
X189826900Y-137769600D01*
X189824360Y-137652760D01*
X189824360Y-137561320D01*
X189826900Y-137431780D01*
X189826900Y-137317480D01*
X189831980Y-137223500D01*
X189834520Y-137152380D01*
X189839600Y-137111740D01*
X189842140Y-137101580D01*
X189862460Y-137096500D01*
X189915800Y-137083800D01*
X189992000Y-137068560D01*
X190091060Y-137048240D01*
X190202820Y-137027920D01*
X190296800Y-137010140D01*
X190416180Y-136987280D01*
X190527940Y-136964420D01*
X190621920Y-136944100D01*
X190693040Y-136926320D01*
X190738760Y-136913620D01*
X190751460Y-136906000D01*
X190769240Y-136880600D01*
X190792100Y-136829800D01*
X190822580Y-136758680D01*
X190858140Y-136674860D01*
X190893700Y-136583420D01*
X190929260Y-136494520D01*
X190962280Y-136410700D01*
X190985140Y-136339580D01*
X191000380Y-136288780D01*
X191005460Y-136265920D01*
X190992760Y-136245600D01*
X190962280Y-136197340D01*
X190919100Y-136131300D01*
X190863220Y-136047480D01*
X190799720Y-135950960D01*
X190751460Y-135884920D01*
X190682880Y-135783320D01*
X190621920Y-135694420D01*
X190571120Y-135615680D01*
X190533020Y-135554720D01*
X190512700Y-135519160D01*
X190507620Y-135509000D01*
X190520320Y-135488680D01*
X190553340Y-135448040D01*
X190606680Y-135392160D01*
X190675260Y-135321040D01*
X190756540Y-135237220D01*
X190820040Y-135173720D01*
X190924180Y-135069580D01*
X191008000Y-134988300D01*
X191071500Y-134929880D01*
X191117220Y-134894320D01*
X191147700Y-134874000D01*
X191165480Y-134871460D01*
X191188340Y-134884160D01*
X191236600Y-134912100D01*
X191307720Y-134957820D01*
X191391540Y-135013700D01*
X191485520Y-135077200D01*
X191541400Y-135115300D01*
X191640460Y-135181340D01*
X191731900Y-135242300D01*
X191810640Y-135293100D01*
X191869060Y-135328660D01*
X191907160Y-135348980D01*
X191917320Y-135351520D01*
X191942720Y-135343900D01*
X191993520Y-135326120D01*
X192064640Y-135298180D01*
X192148460Y-135262620D01*
X192239900Y-135227060D01*
X192331340Y-135188960D01*
X192412620Y-135150860D01*
X192483740Y-135120380D01*
X192534540Y-135094980D01*
X192559940Y-135082280D01*
X192559940Y-135082280D01*
X192567560Y-135059420D01*
X192580260Y-135008620D01*
X192598040Y-134932420D01*
X192618360Y-134835900D01*
X192638680Y-134724140D01*
X192653920Y-134650480D01*
X192676780Y-134531100D01*
X192697100Y-134424420D01*
X192714880Y-134332980D01*
X192727580Y-134261860D01*
X192737740Y-134218680D01*
X192740280Y-134208520D01*
X192760600Y-134200900D01*
X192811400Y-134193280D01*
X192885060Y-134190740D01*
X192976500Y-134185660D01*
X193083180Y-134183120D01*
X193192400Y-134183120D01*
X193304160Y-134183120D01*
X193410840Y-134183120D01*
X193504820Y-134188200D01*
X193583560Y-134193280D01*
X193636900Y-134198360D01*
X193662300Y-134205980D01*
X193662300Y-134205980D01*
X193669920Y-134231380D01*
X193682620Y-134284720D01*
X193700400Y-134360920D01*
X193720720Y-134459980D01*
X193741040Y-134571740D01*
X193753740Y-134632700D01*
X193774060Y-134747000D01*
X193796920Y-134853680D01*
X193817240Y-134942580D01*
X193832480Y-135008620D01*
X193845180Y-135049260D01*
X193850260Y-135056880D01*
X193873120Y-135069580D01*
X193923920Y-135092440D01*
X193995040Y-135122920D01*
X194078860Y-135161020D01*
X194172840Y-135196580D01*
X194266820Y-135234680D01*
X194355720Y-135270240D01*
X194431920Y-135300720D01*
X194492880Y-135321040D01*
X194528440Y-135331200D01*
X194533520Y-135333740D01*
X194553840Y-135323580D01*
X194599560Y-135295640D01*
X194665600Y-135252460D01*
X194746880Y-135199120D01*
X194840860Y-135135620D01*
X194891660Y-135100060D01*
X194990720Y-135031480D01*
X195079620Y-134973060D01*
X195158360Y-134924800D01*
X195216780Y-134889240D01*
X195252340Y-134868920D01*
X195262500Y-134866380D01*
X195280280Y-134879080D01*
X195320920Y-134912100D01*
X195376800Y-134962900D01*
X195445380Y-135026400D01*
X195521580Y-135100060D01*
X195600320Y-135176260D01*
X195679060Y-135255000D01*
X195752720Y-135328660D01*
X195816220Y-135394700D01*
X195867020Y-135448040D01*
X195900040Y-135483600D01*
X195910200Y-135501380D01*
X195900040Y-135519160D01*
X195874640Y-135562340D01*
X195831460Y-135625840D01*
X195778120Y-135707120D01*
X195714620Y-135798560D01*
X195676520Y-135854440D01*
X195610480Y-135953500D01*
X195552060Y-136042400D01*
X195501260Y-136118600D01*
X195465700Y-136177020D01*
X195445380Y-136212580D01*
X195442840Y-136220200D01*
X195450460Y-136245600D01*
X195473320Y-136293860D01*
X195503800Y-136357360D01*
X195526660Y-136400540D01*
X195564760Y-136476740D01*
X195587620Y-136527540D01*
X195587620Y-136565640D01*
X195564760Y-136593580D01*
X195516500Y-136618980D01*
X195435220Y-136652000D01*
X195425060Y-136657080D01*
X195376800Y-136677400D01*
X195298060Y-136707880D01*
X195199000Y-136748520D01*
X195079620Y-136796780D01*
X194950080Y-136852660D01*
X194810380Y-136908540D01*
X194721480Y-136946640D01*
X194586860Y-137002520D01*
X194459860Y-137053320D01*
X194350640Y-137096500D01*
X194256660Y-137134600D01*
X194185540Y-137162540D01*
X194139820Y-137177780D01*
X194127120Y-137182860D01*
X194104260Y-137167620D01*
X194068700Y-137132060D01*
X194025520Y-137078720D01*
X194007740Y-137055860D01*
X193883280Y-136906000D01*
X193751200Y-136791700D01*
X193611500Y-136707880D01*
X193459100Y-136654540D01*
X193288920Y-136629140D01*
X193197480Y-136626600D01*
X193014600Y-136641840D01*
X192846960Y-136690100D01*
X192692020Y-136773920D01*
X192552320Y-136888220D01*
X192511680Y-136931400D01*
X192405000Y-137076180D01*
X192328800Y-137233660D01*
X192283080Y-137398760D01*
X192270380Y-137566400D01*
X192285620Y-137736580D01*
X192333880Y-137899140D01*
X192410080Y-138054080D01*
X192519300Y-138193780D01*
X192565020Y-138242040D01*
X192709800Y-138356340D01*
X192862200Y-138435080D01*
X193027300Y-138483340D01*
X193207640Y-138498580D01*
X193210180Y-138498580D01*
X193390520Y-138480800D01*
X193560700Y-138432540D01*
X193715640Y-138351260D01*
X193857880Y-138234420D01*
X193989960Y-138087100D01*
X194020440Y-138046460D01*
X194061080Y-137993120D01*
X194096640Y-137955020D01*
X194122040Y-137937240D01*
X194124580Y-137934700D01*
X194149980Y-137942320D01*
X194200780Y-137960100D01*
X194269360Y-137988040D01*
X194350640Y-138021060D01*
X194360800Y-138023600D01*
X194434460Y-138054080D01*
X194533520Y-138097260D01*
X194652900Y-138145520D01*
X194784980Y-138201400D01*
X194924680Y-138259820D01*
X195064380Y-138315700D01*
X195074540Y-138320780D01*
X195201540Y-138374120D01*
X195315840Y-138422380D01*
X195417440Y-138465560D01*
X195498720Y-138501120D01*
X195557140Y-138526520D01*
X195590160Y-138541760D01*
X195592700Y-138544300D01*
X195592700Y-138567160D01*
X195574920Y-138612880D01*
X195546980Y-138678920D01*
X195526660Y-138719560D01*
X195491100Y-138790680D01*
X195463160Y-138849100D01*
X195445380Y-138889740D01*
X195442840Y-138902440D01*
X195453000Y-138922760D01*
X195480940Y-138968480D01*
X195521580Y-139034520D01*
X195574920Y-139115800D01*
X195638420Y-139207240D01*
X195656200Y-139235180D01*
X195722240Y-139329160D01*
X195780660Y-139418060D01*
X195831460Y-139491720D01*
X195867020Y-139547600D01*
X195889880Y-139580620D01*
X195892420Y-139585700D01*
X195897500Y-139600940D01*
X195894960Y-139616180D01*
X195884800Y-139636500D01*
X195864480Y-139666980D01*
X195826380Y-139707620D01*
X195773040Y-139766040D01*
X195699380Y-139839700D01*
X195602860Y-139938760D01*
X195602860Y-139938760D01*
X195508880Y-140030200D01*
X195425060Y-140111480D01*
X195356480Y-140174980D01*
X195300600Y-140223240D01*
X195267580Y-140246100D01*
X195259960Y-140251180D01*
X195234560Y-140241020D01*
X195186300Y-140213080D01*
X195117720Y-140172440D01*
X195033900Y-140116560D01*
X194939920Y-140053060D01*
X194886580Y-140017500D01*
X194790060Y-139951460D01*
X194701160Y-139893040D01*
X194627500Y-139842240D01*
X194571620Y-139806680D01*
X194538600Y-139786360D01*
X194533520Y-139783820D01*
X194510660Y-139791440D01*
X194459860Y-139809220D01*
X194391280Y-139837160D01*
X194307460Y-139867640D01*
X194216020Y-139905740D01*
X194124580Y-139943840D01*
X194035680Y-139979400D01*
X193956940Y-140012420D01*
X193898520Y-140037820D01*
X193862960Y-140055600D01*
X193857880Y-140058140D01*
X193845180Y-140073380D01*
X193835020Y-140106400D01*
X193819780Y-140157200D01*
X193802000Y-140230860D01*
X193781680Y-140327380D01*
X193758820Y-140454380D01*
X193728340Y-140611860D01*
X193710560Y-140708380D01*
X193697860Y-140784580D01*
X193685160Y-140848080D01*
X193675000Y-140891260D01*
X193672460Y-140901420D01*
X193667380Y-140911580D01*
X193657220Y-140919200D01*
X193631820Y-140924280D01*
X193593720Y-140926820D01*
X193535300Y-140929360D01*
X193454020Y-140931900D01*
X193344800Y-140931900D01*
X196413120Y-140931900D01*
X196413120Y-137541000D01*
X196413120Y-134040880D01*
X192913000Y-134040880D01*
X189412880Y-134040880D01*
X189412880Y-137541000D01*
X189412880Y-141041120D01*
X192913000Y-141041120D01*
X196413120Y-141041120D01*
X196413120Y-141041120D01*
M02*
