M48
METRIC,TZ
T1C0.600
T2C0.635
T3C0.813
T4C0.900
T5C1.016
T6C3.048
%
G90
G05
T1
X173355Y-151638
X178435Y-151638
T2
X159385Y-147066
T3
X149479Y-153162
X152019Y-153162
X154305Y-139446
X154305Y-147066
X156845Y-139446
X156845Y-147066
X159385Y-139446
X159385Y-147066
X161925Y-139446
X161925Y-147066
X164465Y-139446
X164465Y-147066
X167005Y-139446
X167005Y-147066
X167894Y-150495
X167894Y-153035
X169545Y-139446
X169545Y-147066
X172085Y-139446
X172085Y-147066
X174625Y-139446
X174625Y-147066
X177165Y-139446
X177165Y-147066
X179705Y-139446
X179705Y-147066
X182245Y-139446
X182245Y-147066
X184785Y-139446
X184785Y-147066
X184912Y-150495
X184912Y-153035
X185801Y-132715
X187325Y-139446
X187325Y-147066
X188341Y-132715
T4
X149352Y-137033
X149352Y-139573
X149352Y-142113
X149352Y-144653
X149352Y-147193
X149352Y-149733
X154051Y-132715
X156591Y-132715
X159004Y-135763
X159131Y-132715
X161671Y-132715
X161925Y-135763
X164465Y-135763
X167005Y-135763
X169799Y-135763
X172339Y-135763
X188341Y-150368
X188341Y-153289
X190881Y-150368
X190881Y-153289
X194437Y-150368
X194437Y-152908
X200406Y-132715
X200406Y-142367
T5
X152908Y-150622
X164338Y-150622
X175387Y-135763
X186817Y-135763
T6
X148971Y-132969
X198882Y-152019
T0
M30
